<svg xmlns="http://www.w3.org/2000/svg" xmlns:xlink="http://www.w3.org/1999/xlink" width="120" zoomAndPan="magnify" viewBox="0 0 90 60" height="80" preserveAspectRatio="xMidYMid meet" version="1.0"><defs><g/><clipPath id="5c15a53c3a"><path d="M 78.910156 27.578125 L 80.21875 27.578125 L 80.21875 28.886719 L 78.910156 28.886719 Z M 78.910156 27.578125 " clip-rule="nonzero"/></clipPath><clipPath id="303b77ad9e"><path d="M 79.566406 27.578125 C 79.203125 27.578125 78.910156 27.871094 78.910156 28.234375 C 78.910156 28.59375 79.203125 28.886719 79.566406 28.886719 C 79.925781 28.886719 80.21875 28.59375 80.21875 28.234375 C 80.21875 27.871094 79.925781 27.578125 79.566406 27.578125 Z M 79.566406 27.578125 " clip-rule="nonzero"/></clipPath></defs><g fill="#ffffff" fill-opacity="1"><g transform="translate(8.177575, 46.988371)"><g><path d="M 29.03125 -14.515625 C 28.28125 -14.390625 27.535156 -14.210938 26.796875 -13.984375 C 26.484375 -13.898438 26.160156 -13.804688 25.828125 -13.703125 C 22.753906 -12.898438 19.710938 -12.003906 16.703125 -11.015625 C 16.546875 -10.972656 16.421875 -10.9375 16.328125 -10.90625 C 16.148438 -10.863281 16.023438 -10.820312 15.953125 -10.78125 C 15.890625 -10.75 15.84375 -10.691406 15.8125 -10.609375 C 15.789062 -10.523438 15.773438 -10.398438 15.765625 -10.234375 C 15.753906 -10.117188 15.738281 -9.988281 15.71875 -9.84375 C 15.539062 -8.570312 15.414062 -7.304688 15.34375 -6.046875 C 15.289062 -5.234375 15.3125 -4.414062 15.40625 -3.59375 C 15.414062 -3.332031 15.460938 -3.085938 15.546875 -2.859375 C 15.640625 -2.640625 15.8125 -2.472656 16.0625 -2.359375 C 16.082031 -2.335938 16.09375 -2.3125 16.09375 -2.28125 C 16.101562 -2.25 16.097656 -2.210938 16.078125 -2.171875 C 16.054688 -2.140625 16.035156 -2.125 16.015625 -2.125 C 15.585938 -1.914062 15.265625 -1.992188 15.046875 -2.359375 C 14.929688 -2.554688 14.859375 -2.773438 14.828125 -3.015625 C 14.816406 -3.035156 14.8125 -3.050781 14.8125 -3.0625 C 14.726562 -3.457031 14.679688 -3.867188 14.671875 -4.296875 C 14.660156 -4.734375 14.65625 -5.160156 14.65625 -5.578125 C 14.738281 -6.890625 14.851562 -8.203125 15 -9.515625 C 15.007812 -9.578125 15.015625 -9.625 15.015625 -9.65625 C 15.035156 -9.726562 15.050781 -9.800781 15.0625 -9.875 C 15.070312 -9.976562 15.078125 -10.070312 15.078125 -10.15625 C 15.085938 -10.25 15.078125 -10.335938 15.046875 -10.421875 C 15.003906 -10.441406 14.957031 -10.445312 14.90625 -10.4375 C 14.863281 -10.4375 14.828125 -10.425781 14.796875 -10.40625 C 14.785156 -10.40625 14.773438 -10.398438 14.765625 -10.390625 C 14.410156 -10.285156 14.050781 -10.175781 13.6875 -10.0625 C 13.59375 -10.03125 13.488281 -10 13.375 -9.96875 C 13.25 -9.914062 13.148438 -9.835938 13.078125 -9.734375 C 13.015625 -9.640625 12.957031 -9.523438 12.90625 -9.390625 C 12.832031 -9.210938 12.765625 -9.039062 12.703125 -8.875 C 12.421875 -8.132812 12.132812 -7.40625 11.84375 -6.6875 C 11.394531 -5.625 10.910156 -4.582031 10.390625 -3.5625 C 9.878906 -2.539062 9.296875 -1.554688 8.640625 -0.609375 C 7.835938 0.597656 6.941406 1.722656 5.953125 2.765625 C 4.410156 4.316406 2.617188 5.375 0.578125 5.9375 C -1.328125 6.46875 -3.195312 6.472656 -5.03125 5.953125 C -5.550781 5.804688 -6.03125 5.59375 -6.46875 5.3125 C -6.78125 5.09375 -7.046875 4.84375 -7.265625 4.5625 C -7.492188 4.289062 -7.664062 3.972656 -7.78125 3.609375 C -7.90625 3.148438 -7.929688 2.695312 -7.859375 2.25 C -7.796875 1.8125 -7.644531 1.382812 -7.40625 0.96875 C -7.082031 0.382812 -6.695312 -0.140625 -6.25 -0.609375 C -5.8125 -1.078125 -5.34375 -1.515625 -4.84375 -1.921875 C -4.351562 -2.328125 -3.851562 -2.707031 -3.34375 -3.0625 C -2.5 -3.65625 -1.632812 -4.195312 -0.75 -4.6875 C 0.132812 -5.175781 1.035156 -5.632812 1.953125 -6.0625 C 4.117188 -7.0625 6.320312 -7.96875 8.5625 -8.78125 C 9.707031 -9.195312 10.859375 -9.582031 12.015625 -9.9375 C 12.335938 -10.019531 12.539062 -10.226562 12.625 -10.5625 C 12.800781 -11.082031 12.976562 -11.609375 13.15625 -12.140625 C 13.425781 -12.941406 13.691406 -13.757812 13.953125 -14.59375 C 15.140625 -18.476562 16.207031 -22.390625 17.15625 -26.328125 C 17.238281 -26.660156 17.3125 -27 17.375 -27.34375 C 17.40625 -27.507812 17.445312 -27.675781 17.5 -27.84375 C 17.53125 -28.070312 17.648438 -28.226562 17.859375 -28.3125 C 17.984375 -28.351562 18.078125 -28.347656 18.140625 -28.296875 C 18.210938 -28.253906 18.253906 -28.171875 18.265625 -28.046875 C 18.234375 -27.941406 18.207031 -27.835938 18.1875 -27.734375 C 18.03125 -27.066406 17.925781 -26.398438 17.875 -25.734375 C 17.84375 -25.503906 17.804688 -25.273438 17.765625 -25.046875 C 17.472656 -22.878906 17.175781 -20.71875 16.875 -18.5625 C 16.644531 -16.894531 16.414062 -15.222656 16.1875 -13.546875 C 16.125 -13.046875 16.066406 -12.554688 16.015625 -12.078125 C 15.984375 -11.960938 15.960938 -11.859375 15.953125 -11.765625 C 15.941406 -11.753906 15.941406 -11.734375 15.953125 -11.703125 C 15.941406 -11.628906 15.9375 -11.5625 15.9375 -11.5 C 15.9375 -11.445312 15.957031 -11.390625 16 -11.328125 C 16.070312 -11.304688 16.144531 -11.304688 16.21875 -11.328125 C 16.289062 -11.347656 16.363281 -11.367188 16.4375 -11.390625 C 16.488281 -11.410156 16.535156 -11.425781 16.578125 -11.4375 C 16.878906 -11.519531 17.191406 -11.617188 17.515625 -11.734375 C 17.953125 -11.867188 18.382812 -11.992188 18.8125 -12.109375 C 21.1875 -12.785156 23.554688 -13.453125 25.921875 -14.109375 C 26.710938 -14.335938 27.5 -14.539062 28.28125 -14.71875 C 28.332031 -14.726562 28.398438 -14.742188 28.484375 -14.765625 C 28.523438 -14.785156 28.570312 -14.800781 28.625 -14.8125 C 28.71875 -14.84375 28.8125 -14.863281 28.90625 -14.875 C 29 -14.882812 29.101562 -14.878906 29.21875 -14.859375 C 29.226562 -14.847656 29.242188 -14.832031 29.265625 -14.8125 C 29.285156 -14.789062 29.289062 -14.769531 29.28125 -14.75 C 29.289062 -14.726562 29.285156 -14.703125 29.265625 -14.671875 C 29.253906 -14.648438 29.238281 -14.632812 29.21875 -14.625 C 29.175781 -14.570312 29.113281 -14.535156 29.03125 -14.515625 Z M 12.15625 -9.296875 C 12.175781 -9.359375 12.164062 -9.410156 12.125 -9.453125 C 12.09375 -9.492188 12.050781 -9.503906 12 -9.484375 C 11.925781 -9.460938 11.847656 -9.4375 11.765625 -9.40625 C 11.722656 -9.394531 11.679688 -9.382812 11.640625 -9.375 C 8.804688 -8.46875 6.015625 -7.394531 3.265625 -6.15625 C 2.222656 -5.695312 1.191406 -5.195312 0.171875 -4.65625 C -0.847656 -4.113281 -1.832031 -3.515625 -2.78125 -2.859375 C -3.289062 -2.515625 -3.789062 -2.144531 -4.28125 -1.75 C -4.769531 -1.363281 -5.226562 -0.929688 -5.65625 -0.453125 C -6.113281 0.015625 -6.5 0.539062 -6.8125 1.125 C -7.164062 1.8125 -7.285156 2.472656 -7.171875 3.109375 C -7.054688 3.742188 -6.710938 4.28125 -6.140625 4.71875 C -5.734375 5.03125 -5.28125 5.265625 -4.78125 5.421875 C -2.988281 6.023438 -1.070312 6.023438 0.96875 5.421875 C 1.488281 5.265625 2.066406 5.007812 2.703125 4.65625 C 3.328125 4.320312 3.910156 3.921875 4.453125 3.453125 C 4.992188 2.992188 5.503906 2.492188 5.984375 1.953125 C 7.160156 0.609375 8.1875 -0.84375 9.0625 -2.40625 C 9.675781 -3.46875 10.226562 -4.5625 10.71875 -5.6875 C 11.207031 -6.8125 11.664062 -7.945312 12.09375 -9.09375 C 12.113281 -9.15625 12.132812 -9.222656 12.15625 -9.296875 Z M 15.265625 -11.546875 C 15.441406 -12.953125 15.632812 -14.363281 15.84375 -15.78125 C 15.832031 -15.851562 15.851562 -16.070312 15.90625 -16.4375 C 15.96875 -16.8125 16.023438 -17.242188 16.078125 -17.734375 C 16.140625 -18.222656 16.191406 -18.679688 16.234375 -19.109375 C 16.285156 -19.535156 16.316406 -19.851562 16.328125 -20.0625 C 16.335938 -20.269531 16.316406 -20.285156 16.265625 -20.109375 C 16.242188 -20.054688 16.234375 -20.015625 16.234375 -19.984375 C 16.171875 -19.828125 16.117188 -19.664062 16.078125 -19.5 C 15.722656 -18.21875 15.351562 -16.929688 14.96875 -15.640625 C 14.59375 -14.359375 14.195312 -13.085938 13.78125 -11.828125 C 13.738281 -11.703125 13.695312 -11.578125 13.65625 -11.453125 C 13.5625 -11.210938 13.476562 -10.972656 13.40625 -10.734375 C 13.375 -10.628906 13.378906 -10.550781 13.421875 -10.5 C 13.460938 -10.457031 13.523438 -10.445312 13.609375 -10.46875 C 13.773438 -10.519531 13.925781 -10.570312 14.0625 -10.625 C 14.289062 -10.71875 14.519531 -10.800781 14.75 -10.875 C 14.9375 -10.914062 15.066406 -10.992188 15.140625 -11.109375 C 15.210938 -11.222656 15.253906 -11.367188 15.265625 -11.546875 Z M 15.265625 -11.546875 "/></g></g><g transform="translate(26.139607, 41.509244)"><g><path d="M 0.15625 -9.890625 C 0.15625 -9.921875 0.179688 -9.953125 0.234375 -9.984375 C 0.296875 -10.023438 0.359375 -10.0625 0.421875 -10.09375 C 0.492188 -10.125 0.554688 -10.140625 0.609375 -10.140625 C 0.671875 -10.148438 0.695312 -10.132812 0.6875 -10.09375 C 0.707031 -9.894531 0.695312 -9.707031 0.65625 -9.53125 C 0.65625 -9.488281 0.65625 -9.453125 0.65625 -9.421875 C 0.550781 -8.609375 0.445312 -7.796875 0.34375 -6.984375 C 0.332031 -6.859375 0.316406 -6.738281 0.296875 -6.625 C 0.265625 -6.34375 0.210938 -6.003906 0.140625 -5.609375 C 0.0546875 -5.179688 -0.00390625 -4.789062 -0.046875 -4.4375 C 0.0351562 -4.632812 0.160156 -4.800781 0.328125 -4.9375 C 0.503906 -5.082031 0.648438 -5.171875 0.765625 -5.203125 C 1.171875 -5.316406 1.453125 -5.1875 1.609375 -4.8125 C 1.816406 -4.382812 1.875 -3.90625 1.78125 -3.375 C 1.695312 -2.851562 1.515625 -2.394531 1.234375 -2 C 0.972656 -1.71875 0.703125 -1.546875 0.421875 -1.484375 C 0.148438 -1.429688 -0.128906 -1.492188 -0.421875 -1.671875 C -0.453125 -1.671875 -0.476562 -1.648438 -0.5 -1.609375 C -0.519531 -1.578125 -0.546875 -1.539062 -0.578125 -1.5 C -0.597656 -1.4375 -0.628906 -1.382812 -0.671875 -1.34375 C -0.691406 -1.3125 -0.722656 -1.296875 -0.765625 -1.296875 C -0.816406 -1.296875 -0.851562 -1.300781 -0.875 -1.3125 C -0.976562 -1.351562 -1.03125 -1.425781 -1.03125 -1.53125 C -0.96875 -2.445312 -0.859375 -3.421875 -0.703125 -4.453125 C -0.554688 -5.492188 -0.394531 -6.503906 -0.21875 -7.484375 C -0.144531 -7.921875 -0.078125 -8.351562 -0.015625 -8.78125 C 0.015625 -8.9375 0.0390625 -9.097656 0.0625 -9.265625 C 0.09375 -9.460938 0.125 -9.671875 0.15625 -9.890625 Z M 0.3125 -4.3125 C 0.0820312 -4.007812 -0.09375 -3.675781 -0.21875 -3.3125 C -0.34375 -2.945312 -0.320312 -2.613281 -0.15625 -2.3125 C -0.0703125 -2.132812 0.0390625 -2.019531 0.1875 -1.96875 C 0.332031 -1.925781 0.472656 -2 0.609375 -2.1875 C 0.734375 -2.394531 0.835938 -2.640625 0.921875 -2.921875 C 1.015625 -3.203125 1.070312 -3.488281 1.09375 -3.78125 C 1.113281 -4.050781 1.101562 -4.273438 1.0625 -4.453125 C 1.019531 -4.628906 0.9375 -4.71875 0.8125 -4.71875 C 0.695312 -4.71875 0.53125 -4.582031 0.3125 -4.3125 Z M 0.3125 -4.3125 "/></g></g><g transform="translate(29.278713, 40.551693)"><g><path d="M 4.125 -4.5 C 4.207031 -4.5 4.253906 -4.484375 4.265625 -4.453125 C 4.285156 -4.429688 4.296875 -4.421875 4.296875 -4.421875 C 4.242188 -4.222656 4.179688 -4.046875 4.109375 -3.890625 C 3.929688 -3.503906 3.695312 -3.164062 3.40625 -2.875 C 3.25 -2.726562 3.0625 -2.617188 2.84375 -2.546875 C 2.351562 -2.390625 2.050781 -2.5625 1.9375 -3.0625 C 1.925781 -3.175781 1.921875 -3.289062 1.921875 -3.40625 C 1.921875 -3.445312 1.914062 -3.492188 1.90625 -3.546875 C 1.90625 -3.742188 1.890625 -3.851562 1.859375 -3.875 C 1.828125 -3.894531 1.78125 -3.828125 1.71875 -3.671875 C 1.71875 -3.640625 1.703125 -3.601562 1.671875 -3.5625 C 1.578125 -3.34375 1.476562 -3.117188 1.375 -2.890625 C 1.1875 -2.472656 0.941406 -2.09375 0.640625 -1.75 C 0.453125 -1.539062 0.234375 -1.394531 -0.015625 -1.3125 C -0.410156 -1.1875 -0.695312 -1.3125 -0.875 -1.6875 C -0.925781 -1.832031 -0.960938 -1.984375 -0.984375 -2.140625 C -1.015625 -2.847656 -0.828125 -3.441406 -0.421875 -3.921875 C -0.0234375 -4.410156 0.503906 -4.703125 1.171875 -4.796875 C 1.359375 -4.796875 1.476562 -4.890625 1.53125 -5.078125 C 1.539062 -5.140625 1.550781 -5.207031 1.5625 -5.28125 C 1.644531 -5.632812 1.722656 -5.988281 1.796875 -6.34375 C 1.941406 -7 2.082031 -7.671875 2.21875 -8.359375 C 2.332031 -8.898438 2.445312 -9.4375 2.5625 -9.96875 C 2.601562 -10.132812 2.644531 -10.296875 2.6875 -10.453125 C 2.707031 -10.523438 2.75 -10.578125 2.8125 -10.609375 C 2.875 -10.648438 2.929688 -10.679688 2.984375 -10.703125 C 3.003906 -10.703125 3.023438 -10.707031 3.046875 -10.71875 C 3.117188 -10.738281 3.1875 -10.734375 3.25 -10.703125 C 3.3125 -10.679688 3.335938 -10.640625 3.328125 -10.578125 C 3.328125 -10.398438 3.3125 -10.226562 3.28125 -10.0625 C 3.144531 -9.257812 3.03125 -8.453125 2.9375 -7.640625 C 2.851562 -6.835938 2.773438 -6.035156 2.703125 -5.234375 C 2.679688 -4.953125 2.65625 -4.671875 2.625 -4.390625 C 2.582031 -4.066406 2.566406 -3.738281 2.578125 -3.40625 C 2.566406 -3.320312 2.570312 -3.25 2.59375 -3.1875 C 2.613281 -3.125 2.671875 -3.078125 2.765625 -3.046875 C 2.804688 -3.023438 2.847656 -3.03125 2.890625 -3.0625 C 2.929688 -3.101562 2.972656 -3.140625 3.015625 -3.171875 C 3.015625 -3.179688 3.023438 -3.195312 3.046875 -3.21875 C 3.347656 -3.539062 3.601562 -3.890625 3.8125 -4.265625 C 3.84375 -4.335938 3.878906 -4.394531 3.921875 -4.4375 C 3.972656 -4.488281 4.039062 -4.507812 4.125 -4.5 Z M 1.21875 -4.015625 C 1.226562 -4.109375 1.210938 -4.179688 1.171875 -4.234375 C 1.140625 -4.285156 1.085938 -4.316406 1.015625 -4.328125 C 0.847656 -4.367188 0.695312 -4.332031 0.5625 -4.21875 C 0.207031 -3.988281 -0.046875 -3.671875 -0.203125 -3.265625 C -0.367188 -2.859375 -0.40625 -2.453125 -0.3125 -2.046875 C -0.300781 -2.023438 -0.289062 -2.007812 -0.28125 -2 C -0.269531 -1.976562 -0.257812 -1.945312 -0.25 -1.90625 C -0.164062 -1.738281 -0.046875 -1.738281 0.109375 -1.90625 C 0.273438 -2.070312 0.4375 -2.3125 0.59375 -2.625 C 0.75 -2.945312 0.890625 -3.25 1.015625 -3.53125 C 1.140625 -3.820312 1.207031 -3.984375 1.21875 -4.015625 Z M 1.21875 -4.015625 "/></g></g><g transform="translate(34.015703, 39.106724)"><g><path d="M 2.5625 -3.15625 C 2.414062 -2.882812 2.21875 -2.625 1.96875 -2.375 C 1.726562 -2.132812 1.515625 -1.957031 1.328125 -1.84375 C 1.140625 -1.738281 0.945312 -1.648438 0.75 -1.578125 C 0.414062 -1.453125 0.09375 -1.40625 -0.21875 -1.4375 C -0.726562 -1.488281 -0.992188 -1.796875 -1.015625 -2.359375 C -1.023438 -2.847656 -0.863281 -3.28125 -0.53125 -3.65625 C -0.195312 -4.03125 0.1875 -4.28125 0.625 -4.40625 C 0.71875 -4.445312 0.820312 -4.472656 0.9375 -4.484375 C 1.125 -4.460938 1.257812 -4.390625 1.34375 -4.265625 C 1.4375 -4.148438 1.453125 -4 1.390625 -3.8125 C 1.253906 -3.375 0.992188 -3.070312 0.609375 -2.90625 C 0.328125 -2.78125 0.0507812 -2.707031 -0.21875 -2.6875 C -0.257812 -2.675781 -0.289062 -2.644531 -0.3125 -2.59375 C -0.34375 -2.550781 -0.359375 -2.503906 -0.359375 -2.453125 C -0.335938 -2.117188 -0.175781 -1.945312 0.125 -1.9375 C 0.507812 -1.914062 0.863281 -2.023438 1.1875 -2.265625 C 1.5625 -2.515625 1.882812 -2.878906 2.15625 -3.359375 C 2.4375 -3.835938 2.609375 -4.070312 2.671875 -4.0625 C 2.742188 -4.0625 2.78125 -4.003906 2.78125 -3.890625 C 2.789062 -3.679688 2.71875 -3.4375 2.5625 -3.15625 Z M -0.109375 -3.34375 C -0.140625 -3.300781 -0.148438 -3.257812 -0.140625 -3.21875 C -0.140625 -3.1875 -0.117188 -3.171875 -0.078125 -3.171875 C 0.0664062 -3.128906 0.210938 -3.140625 0.359375 -3.203125 C 0.515625 -3.273438 0.628906 -3.375 0.703125 -3.5 C 0.785156 -3.632812 0.796875 -3.765625 0.734375 -3.890625 C 0.710938 -3.941406 0.675781 -3.96875 0.625 -3.96875 C 0.582031 -3.96875 0.539062 -3.960938 0.5 -3.953125 C 0.25 -3.804688 0.046875 -3.601562 -0.109375 -3.34375 Z M -0.109375 -3.34375 "/></g></g><g transform="translate(37.313464, 38.100777)"><g><path d="M 1.90625 -3.53125 C 2 -3.695312 2.085938 -3.796875 2.171875 -3.828125 C 2.253906 -3.867188 2.3125 -3.875 2.34375 -3.84375 C 2.375 -3.8125 2.375 -3.753906 2.34375 -3.671875 C 2.125 -3.171875 1.851562 -2.707031 1.53125 -2.28125 C 1.21875 -1.863281 0.847656 -1.566406 0.421875 -1.390625 C 0.00390625 -1.210938 -0.328125 -1.375 -0.578125 -1.875 C -0.816406 -2.363281 -0.828125 -3.507812 -0.609375 -5.3125 C -0.398438 -7.113281 -0.242188 -8.582031 -0.140625 -9.71875 C -0.140625 -9.820312 -0.113281 -9.914062 -0.0625 -10 C 0 -10.125 0.0976562 -10.179688 0.234375 -10.171875 C 0.273438 -10.160156 0.328125 -10.140625 0.390625 -10.109375 C 0.453125 -10.085938 0.488281 -10.023438 0.5 -9.921875 C 0 -5.140625 -0.164062 -2.570312 0 -2.21875 C 0.164062 -1.863281 0.429688 -1.84375 0.796875 -2.15625 C 1.160156 -2.476562 1.425781 -2.769531 1.59375 -3.03125 C 1.769531 -3.289062 1.875 -3.457031 1.90625 -3.53125 Z M 1.90625 -3.53125 "/></g></g><g transform="translate(40.140926, 37.23829)"><g><path d="M 5.0625 -4.65625 C 5.15625 -4.757812 5.25 -4.804688 5.34375 -4.796875 C 5.4375 -4.785156 5.441406 -4.664062 5.359375 -4.4375 C 5.265625 -4.15625 5.039062 -3.820312 4.6875 -3.4375 C 4.34375 -3.050781 4 -2.820312 3.65625 -2.75 C 3.320312 -2.6875 3.148438 -2.90625 3.140625 -3.40625 C 3.140625 -3.90625 3.132812 -4.179688 3.125 -4.234375 C 3.125 -4.285156 3.109375 -4.3125 3.078125 -4.3125 C 3.046875 -4.3125 2.984375 -4.25 2.890625 -4.125 C 2.617188 -3.78125 2.363281 -3.4375 2.125 -3.09375 C 2.007812 -2.945312 1.90625 -2.789062 1.8125 -2.625 C 1.75 -2.53125 1.679688 -2.425781 1.609375 -2.3125 C 1.609375 -2.3125 1.613281 -2.304688 1.625 -2.296875 C 1.539062 -2.191406 1.429688 -2.09375 1.296875 -2 C 1.242188 -1.957031 1.179688 -1.925781 1.109375 -1.90625 C 1.046875 -1.894531 0.976562 -1.910156 0.90625 -1.953125 C 0.820312 -1.984375 0.78125 -2.03125 0.78125 -2.09375 C 0.78125 -2.164062 0.796875 -2.28125 0.828125 -2.4375 C 0.867188 -2.59375 0.914062 -2.753906 0.96875 -2.921875 C 1.03125 -3.085938 1.0625 -3.191406 1.0625 -3.234375 C 1.0625 -3.273438 1.046875 -3.3125 1.015625 -3.34375 C 0.984375 -3.375 0.953125 -3.375 0.921875 -3.34375 C 0.890625 -3.320312 0.789062 -3.203125 0.625 -2.984375 C 0.46875 -2.773438 0.25 -2.484375 -0.03125 -2.109375 C -0.15625 -1.929688 -0.273438 -1.75 -0.390625 -1.5625 C -0.421875 -1.519531 -0.457031 -1.472656 -0.5 -1.421875 C -0.582031 -1.273438 -0.695312 -1.179688 -0.84375 -1.140625 C -0.9375 -1.097656 -1.015625 -1.09375 -1.078125 -1.125 C -1.148438 -1.164062 -1.1875 -1.238281 -1.1875 -1.34375 C -1.164062 -1.414062 -1.148438 -1.488281 -1.140625 -1.5625 C -1.128906 -1.601562 -1.125 -1.632812 -1.125 -1.65625 C -1.007812 -2.351562 -0.898438 -3.046875 -0.796875 -3.734375 C -0.796875 -3.753906 -0.796875 -3.773438 -0.796875 -3.796875 C -0.773438 -3.890625 -0.757812 -3.96875 -0.75 -4.03125 C -0.695312 -4.15625 -0.597656 -4.21875 -0.453125 -4.21875 C -0.304688 -4.226562 -0.226562 -4.160156 -0.21875 -4.015625 C -0.226562 -3.816406 -0.234375 -3.613281 -0.234375 -3.40625 C -0.253906 -3.3125 -0.265625 -3.210938 -0.265625 -3.109375 C -0.285156 -2.953125 -0.273438 -2.851562 -0.234375 -2.8125 C -0.203125 -2.78125 -0.113281 -2.84375 0.03125 -3 C 0.101562 -3.113281 0.1875 -3.21875 0.28125 -3.3125 C 0.382812 -3.445312 0.484375 -3.578125 0.578125 -3.703125 C 0.742188 -3.867188 0.910156 -4.023438 1.078125 -4.171875 C 1.160156 -4.242188 1.25 -4.300781 1.34375 -4.34375 C 1.445312 -4.394531 1.554688 -4.40625 1.671875 -4.375 C 1.765625 -4.34375 1.816406 -4.285156 1.828125 -4.203125 C 1.835938 -4.128906 1.835938 -4.054688 1.828125 -3.984375 C 1.816406 -3.835938 1.816406 -3.75 1.828125 -3.71875 C 1.847656 -3.695312 1.878906 -3.703125 1.921875 -3.734375 C 1.960938 -3.773438 2.035156 -3.847656 2.140625 -3.953125 C 2.242188 -4.066406 2.351562 -4.191406 2.46875 -4.328125 C 2.613281 -4.503906 2.769531 -4.675781 2.9375 -4.84375 C 3.070312 -5 3.234375 -5.117188 3.421875 -5.203125 C 3.671875 -5.304688 3.800781 -5.234375 3.8125 -4.984375 C 3.832031 -4.742188 3.820312 -4.441406 3.78125 -4.078125 C 3.75 -3.722656 3.796875 -3.523438 3.921875 -3.484375 C 4.054688 -3.441406 4.269531 -3.609375 4.5625 -3.984375 C 4.851562 -4.367188 5.019531 -4.59375 5.0625 -4.65625 Z M 5.0625 -4.65625 "/></g></g><g transform="translate(46.135825, 35.40961)"><g><path d="M 3.21875 -4.140625 C 3.332031 -4.117188 3.378906 -4 3.359375 -3.78125 C 3.285156 -3.59375 3.207031 -3.414062 3.125 -3.25 C 3.039062 -3.09375 2.9375 -2.945312 2.8125 -2.8125 C 2.800781 -2.800781 2.800781 -2.789062 2.8125 -2.78125 C 2.738281 -2.675781 2.648438 -2.582031 2.546875 -2.5 C 1.742188 -1.914062 1.226562 -1.972656 1 -2.671875 C 0.726562 -2.242188 0.539062 -1.972656 0.4375 -1.859375 C 0.195312 -1.585938 -0.0976562 -1.410156 -0.453125 -1.328125 C -0.722656 -1.265625 -0.921875 -1.289062 -1.046875 -1.40625 C -1.179688 -1.519531 -1.226562 -1.710938 -1.1875 -1.984375 C -1.144531 -2.410156 -1.015625 -2.820312 -0.796875 -3.21875 C -0.546875 -3.664062 -0.234375 -4.054688 0.140625 -4.390625 C 0.335938 -4.566406 0.570312 -4.6875 0.84375 -4.75 C 1.101562 -4.800781 1.300781 -4.703125 1.4375 -4.453125 C 1.488281 -4.378906 1.492188 -4.300781 1.453125 -4.21875 C 1.390625 -4.101562 1.300781 -4.050781 1.1875 -4.0625 C 1.175781 -4.0625 1.160156 -4.0625 1.140625 -4.0625 C 1.117188 -4.0625 1.109375 -4.066406 1.109375 -4.078125 C 0.953125 -4.191406 0.816406 -4.21875 0.703125 -4.15625 C 0.597656 -4.101562 0.5 -4.023438 0.40625 -3.921875 C -0.0703125 -3.378906 -0.359375 -2.765625 -0.453125 -2.078125 C -0.460938 -2.054688 -0.460938 -2.023438 -0.453125 -1.984375 C -0.441406 -1.953125 -0.421875 -1.929688 -0.390625 -1.921875 C -0.328125 -1.921875 -0.257812 -1.945312 -0.1875 -2 C -0.113281 -2.0625 -0.046875 -2.132812 0.015625 -2.21875 C 0.0859375 -2.3125 0.144531 -2.390625 0.1875 -2.453125 C 0.1875 -2.460938 0.1875 -2.46875 0.1875 -2.46875 C 0.382812 -2.789062 0.582031 -3.113281 0.78125 -3.4375 C 0.875 -3.582031 1 -3.691406 1.15625 -3.765625 C 1.40625 -3.835938 1.546875 -3.753906 1.578125 -3.515625 C 1.578125 -3.429688 1.570312 -3.347656 1.5625 -3.265625 C 1.582031 -2.867188 1.644531 -2.648438 1.75 -2.609375 C 1.863281 -2.578125 2.003906 -2.617188 2.171875 -2.734375 C 2.335938 -2.859375 2.488281 -3.035156 2.625 -3.265625 C 2.757812 -3.503906 2.863281 -3.710938 2.9375 -3.890625 C 3.019531 -4.078125 3.113281 -4.160156 3.21875 -4.140625 Z M 3.21875 -4.140625 "/></g></g><g transform="translate(49.892552, 34.26366)"><g><path d="M -0.234375 -5.171875 C -0.316406 -5.015625 -0.40625 -4.925781 -0.5 -4.90625 C -0.59375 -4.882812 -0.65625 -4.984375 -0.6875 -5.203125 C -0.71875 -5.515625 -0.664062 -5.828125 -0.53125 -6.140625 C -0.5 -6.203125 -0.453125 -6.242188 -0.390625 -6.265625 C -0.328125 -6.296875 -0.273438 -6.304688 -0.234375 -6.296875 C -0.191406 -6.285156 -0.148438 -6.269531 -0.109375 -6.25 C -0.078125 -6.226562 -0.0625 -6.207031 -0.0625 -6.1875 C -0.0078125 -5.832031 -0.0664062 -5.492188 -0.234375 -5.171875 Z M 1.734375 -3.71875 C 1.753906 -3.726562 1.78125 -3.726562 1.8125 -3.71875 C 1.84375 -3.71875 1.859375 -3.707031 1.859375 -3.6875 C 1.867188 -3.675781 1.875 -3.65625 1.875 -3.625 C 1.875 -3.601562 1.867188 -3.582031 1.859375 -3.5625 C 1.796875 -3.445312 1.71875 -3.347656 1.625 -3.265625 C 1.46875 -3.085938 1.3125 -2.914062 1.15625 -2.75 C 0.769531 -2.300781 0.363281 -1.863281 -0.0625 -1.4375 C -0.375 -1.113281 -0.546875 -0.734375 -0.578125 -0.296875 C -0.660156 0.585938 -0.773438 1.46875 -0.921875 2.34375 C -0.972656 2.75 -1.039062 3.148438 -1.125 3.546875 C -1.207031 3.941406 -1.328125 4.335938 -1.484375 4.734375 C -1.773438 5.515625 -2.28125 6.0625 -3 6.375 C -3.582031 6.632812 -4.191406 6.78125 -4.828125 6.8125 C -5.316406 6.820312 -5.789062 6.765625 -6.25 6.640625 C -6.425781 6.585938 -6.597656 6.523438 -6.765625 6.453125 C -7.492188 6.109375 -7.585938 5.546875 -7.046875 4.765625 C -6.878906 4.503906 -6.6875 4.265625 -6.46875 4.046875 C -6.132812 3.691406 -5.785156 3.347656 -5.421875 3.015625 C -4.972656 2.597656 -4.523438 2.191406 -4.078125 1.796875 C -3.328125 1.109375 -2.59375 0.425781 -1.875 -0.25 C -1.726562 -0.375 -1.609375 -0.476562 -1.515625 -0.5625 C -1.378906 -0.675781 -1.285156 -0.765625 -1.234375 -0.828125 C -1.191406 -0.898438 -1.160156 -0.972656 -1.140625 -1.046875 C -1.117188 -1.128906 -1.097656 -1.242188 -1.078125 -1.390625 C -1.066406 -1.523438 -1.050781 -1.703125 -1.03125 -1.921875 C -0.976562 -2.285156 -0.9375 -2.640625 -0.90625 -2.984375 C -0.882812 -3.242188 -0.863281 -3.492188 -0.84375 -3.734375 C -0.832031 -3.898438 -0.796875 -4.050781 -0.734375 -4.1875 C -0.679688 -4.3125 -0.578125 -4.359375 -0.421875 -4.328125 C -0.316406 -4.304688 -0.257812 -4.242188 -0.25 -4.140625 C -0.257812 -4.023438 -0.269531 -3.832031 -0.28125 -3.5625 C -0.289062 -3.332031 -0.300781 -3.09375 -0.3125 -2.84375 C -0.320312 -2.601562 -0.320312 -2.394531 -0.3125 -2.21875 C -0.3125 -2.039062 -0.304688 -1.9375 -0.296875 -1.90625 C -0.265625 -1.894531 -0.207031 -1.914062 -0.125 -1.96875 C -0.0507812 -2.03125 0.0664062 -2.148438 0.234375 -2.328125 C 0.492188 -2.597656 0.757812 -2.863281 1.03125 -3.125 C 1.113281 -3.238281 1.203125 -3.347656 1.296875 -3.453125 C 1.304688 -3.453125 1.3125 -3.453125 1.3125 -3.453125 C 1.375 -3.523438 1.4375 -3.582031 1.5 -3.625 C 1.570312 -3.675781 1.648438 -3.707031 1.734375 -3.71875 Z M -1.28125 0.234375 C -1.257812 0.140625 -1.285156 0.0507812 -1.359375 -0.03125 C -1.453125 0 -1.535156 0.0546875 -1.609375 0.140625 C -1.628906 0.160156 -1.644531 0.175781 -1.65625 0.1875 C -1.957031 0.457031 -2.253906 0.726562 -2.546875 1 C -3.328125 1.71875 -4.109375 2.425781 -4.890625 3.125 C -5.316406 3.53125 -5.734375 3.953125 -6.140625 4.390625 C -6.316406 4.578125 -6.46875 4.78125 -6.59375 5 C -6.851562 5.414062 -6.800781 5.726562 -6.4375 5.9375 C -6.351562 6 -6.273438 6.046875 -6.203125 6.078125 C -5.773438 6.234375 -5.34375 6.320312 -4.90625 6.34375 C -4.476562 6.363281 -4.035156 6.304688 -3.578125 6.171875 C -2.921875 5.960938 -2.453125 5.53125 -2.171875 4.875 C -1.972656 4.414062 -1.832031 3.945312 -1.75 3.46875 C -1.632812 2.71875 -1.523438 1.957031 -1.421875 1.1875 C -1.367188 0.875 -1.320312 0.554688 -1.28125 0.234375 Z M -1.28125 0.234375 "/></g></g><g transform="translate(52.198719, 33.560188)"><g><path d="M 1.515625 -3.078125 C 1.378906 -2.773438 1.207031 -2.476562 1 -2.1875 C 0.789062 -1.90625 0.519531 -1.671875 0.1875 -1.484375 C -0.132812 -1.304688 -0.410156 -1.25 -0.640625 -1.3125 C -0.867188 -1.382812 -0.988281 -1.648438 -1 -2.109375 C -0.976562 -2.585938 -0.894531 -3.0625 -0.75 -3.53125 C -0.707031 -3.632812 -0.632812 -3.71875 -0.53125 -3.78125 C -0.457031 -3.8125 -0.382812 -3.816406 -0.3125 -3.796875 C -0.238281 -3.773438 -0.191406 -3.726562 -0.171875 -3.65625 C -0.191406 -3.5 -0.210938 -3.34375 -0.234375 -3.1875 C -0.265625 -3.03125 -0.289062 -2.921875 -0.3125 -2.859375 C -0.363281 -2.578125 -0.375 -2.300781 -0.34375 -2.03125 C -0.300781 -1.882812 -0.0976562 -1.9375 0.265625 -2.1875 C 0.640625 -2.445312 0.957031 -2.8125 1.21875 -3.28125 C 1.488281 -3.75 1.640625 -3.90625 1.671875 -3.75 C 1.703125 -3.601562 1.648438 -3.378906 1.515625 -3.078125 Z M -0.046875 -4.671875 C -0.0546875 -4.648438 -0.0859375 -4.617188 -0.140625 -4.578125 C -0.191406 -4.546875 -0.25 -4.515625 -0.3125 -4.484375 C -0.375 -4.453125 -0.425781 -4.445312 -0.46875 -4.46875 C -0.519531 -4.488281 -0.546875 -4.539062 -0.546875 -4.625 C -0.535156 -4.8125 -0.507812 -4.972656 -0.46875 -5.109375 C -0.4375 -5.242188 -0.398438 -5.398438 -0.359375 -5.578125 C -0.304688 -5.671875 -0.238281 -5.734375 -0.15625 -5.765625 C -0.0820312 -5.796875 -0.0078125 -5.789062 0.0625 -5.75 C 0.132812 -5.71875 0.164062 -5.65625 0.15625 -5.5625 C 0.164062 -5.25 0.0976562 -4.953125 -0.046875 -4.671875 Z M -0.046875 -4.671875 "/></g></g><g transform="translate(54.408559, 32.8861)"><g><path d="M 4.125 -4.5 C 4.207031 -4.5 4.253906 -4.484375 4.265625 -4.453125 C 4.285156 -4.429688 4.296875 -4.421875 4.296875 -4.421875 C 4.242188 -4.222656 4.179688 -4.046875 4.109375 -3.890625 C 3.929688 -3.503906 3.695312 -3.164062 3.40625 -2.875 C 3.25 -2.726562 3.0625 -2.617188 2.84375 -2.546875 C 2.351562 -2.390625 2.050781 -2.5625 1.9375 -3.0625 C 1.925781 -3.175781 1.921875 -3.289062 1.921875 -3.40625 C 1.921875 -3.445312 1.914062 -3.492188 1.90625 -3.546875 C 1.90625 -3.742188 1.890625 -3.851562 1.859375 -3.875 C 1.828125 -3.894531 1.78125 -3.828125 1.71875 -3.671875 C 1.71875 -3.640625 1.703125 -3.601562 1.671875 -3.5625 C 1.578125 -3.34375 1.476562 -3.117188 1.375 -2.890625 C 1.1875 -2.472656 0.941406 -2.09375 0.640625 -1.75 C 0.453125 -1.539062 0.234375 -1.394531 -0.015625 -1.3125 C -0.410156 -1.1875 -0.695312 -1.3125 -0.875 -1.6875 C -0.925781 -1.832031 -0.960938 -1.984375 -0.984375 -2.140625 C -1.015625 -2.847656 -0.828125 -3.441406 -0.421875 -3.921875 C -0.0234375 -4.410156 0.503906 -4.703125 1.171875 -4.796875 C 1.359375 -4.796875 1.476562 -4.890625 1.53125 -5.078125 C 1.539062 -5.140625 1.550781 -5.207031 1.5625 -5.28125 C 1.644531 -5.632812 1.722656 -5.988281 1.796875 -6.34375 C 1.941406 -7 2.082031 -7.671875 2.21875 -8.359375 C 2.332031 -8.898438 2.445312 -9.4375 2.5625 -9.96875 C 2.601562 -10.132812 2.644531 -10.296875 2.6875 -10.453125 C 2.707031 -10.523438 2.75 -10.578125 2.8125 -10.609375 C 2.875 -10.648438 2.929688 -10.679688 2.984375 -10.703125 C 3.003906 -10.703125 3.023438 -10.707031 3.046875 -10.71875 C 3.117188 -10.738281 3.1875 -10.734375 3.25 -10.703125 C 3.3125 -10.679688 3.335938 -10.640625 3.328125 -10.578125 C 3.328125 -10.398438 3.3125 -10.226562 3.28125 -10.0625 C 3.144531 -9.257812 3.03125 -8.453125 2.9375 -7.640625 C 2.851562 -6.835938 2.773438 -6.035156 2.703125 -5.234375 C 2.679688 -4.953125 2.65625 -4.671875 2.625 -4.390625 C 2.582031 -4.066406 2.566406 -3.738281 2.578125 -3.40625 C 2.566406 -3.320312 2.570312 -3.25 2.59375 -3.1875 C 2.613281 -3.125 2.671875 -3.078125 2.765625 -3.046875 C 2.804688 -3.023438 2.847656 -3.03125 2.890625 -3.0625 C 2.929688 -3.101562 2.972656 -3.140625 3.015625 -3.171875 C 3.015625 -3.179688 3.023438 -3.195312 3.046875 -3.21875 C 3.347656 -3.539062 3.601562 -3.890625 3.8125 -4.265625 C 3.84375 -4.335938 3.878906 -4.394531 3.921875 -4.4375 C 3.972656 -4.488281 4.039062 -4.507812 4.125 -4.5 Z M 1.21875 -4.015625 C 1.226562 -4.109375 1.210938 -4.179688 1.171875 -4.234375 C 1.140625 -4.285156 1.085938 -4.316406 1.015625 -4.328125 C 0.847656 -4.367188 0.695312 -4.332031 0.5625 -4.21875 C 0.207031 -3.988281 -0.046875 -3.671875 -0.203125 -3.265625 C -0.367188 -2.859375 -0.40625 -2.453125 -0.3125 -2.046875 C -0.300781 -2.023438 -0.289062 -2.007812 -0.28125 -2 C -0.269531 -1.976562 -0.257812 -1.945312 -0.25 -1.90625 C -0.164062 -1.738281 -0.046875 -1.738281 0.109375 -1.90625 C 0.273438 -2.070312 0.4375 -2.3125 0.59375 -2.625 C 0.75 -2.945312 0.890625 -3.25 1.015625 -3.53125 C 1.140625 -3.820312 1.207031 -3.984375 1.21875 -4.015625 Z M 1.21875 -4.015625 "/></g></g><g transform="translate(59.145549, 31.441131)"><g/></g><g transform="translate(63.429239, 30.134437)"><g><path d="M 33.53125 -5.25 C 33.5625 -5.21875 33.582031 -5.179688 33.59375 -5.140625 L 33.609375 -5.109375 C 33.609375 -5.085938 33.613281 -5.066406 33.625 -5.046875 C 33.625 -4.992188 33.609375 -4.945312 33.578125 -4.90625 C 33.546875 -4.875 33.503906 -4.851562 33.453125 -4.84375 C 33.429688 -4.832031 33.40625 -4.828125 33.375 -4.828125 C 33.34375 -4.828125 33.316406 -4.828125 33.296875 -4.828125 C 33.066406 -4.929688 32.832031 -4.976562 32.59375 -4.96875 C 32.363281 -4.957031 32.140625 -4.9375 31.921875 -4.90625 C 31.785156 -4.882812 31.648438 -4.863281 31.515625 -4.84375 C 28.503906 -4.53125 25.515625 -4.09375 22.546875 -3.53125 C 21.046875 -3.21875 19.546875 -2.890625 18.046875 -2.546875 C 16.898438 -2.273438 15.753906 -1.976562 14.609375 -1.65625 C 13.859375 -1.425781 13.101562 -1.21875 12.34375 -1.03125 C 11.789062 -0.882812 11.242188 -0.71875 10.703125 -0.53125 C 10.523438 -0.46875 10.351562 -0.410156 10.1875 -0.359375 C 9.675781 -0.191406 9.171875 -0.03125 8.671875 0.125 C 7.296875 0.5625 5.929688 1.007812 4.578125 1.46875 C 3.410156 1.875 2.25 2.304688 1.09375 2.765625 C -0.0507812 3.222656 -1.171875 3.734375 -2.265625 4.296875 C -3.003906 4.671875 -3.710938 5.101562 -4.390625 5.59375 C -4.421875 5.613281 -4.445312 5.640625 -4.46875 5.671875 C -4.539062 5.710938 -4.613281 5.757812 -4.6875 5.8125 C -4.769531 5.863281 -4.867188 5.894531 -4.984375 5.90625 C -5.085938 5.914062 -5.171875 5.878906 -5.234375 5.796875 C -5.242188 5.765625 -5.25 5.726562 -5.25 5.6875 C -5.25 5.644531 -5.242188 5.609375 -5.234375 5.578125 C -5.117188 5.398438 -5 5.238281 -4.875 5.09375 C -3.738281 3.644531 -2.660156 2.160156 -1.640625 0.640625 C 0.191406 -1.992188 1.882812 -4.710938 3.4375 -7.515625 C 4.40625 -9.242188 5.398438 -10.960938 6.421875 -12.671875 C 7.078125 -13.753906 7.71875 -14.847656 8.34375 -15.953125 C 8.65625 -16.492188 8.957031 -17.039062 9.25 -17.59375 C 9.28125 -17.664062 9.316406 -17.734375 9.359375 -17.796875 C 9.367188 -17.828125 9.378906 -17.847656 9.390625 -17.859375 C 9.429688 -17.929688 9.460938 -17.992188 9.484375 -18.046875 C 9.503906 -18.097656 9.503906 -18.15625 9.484375 -18.21875 C 9.378906 -18.257812 9.28125 -18.273438 9.1875 -18.265625 C 9.09375 -18.253906 8.992188 -18.234375 8.890625 -18.203125 C 8.847656 -18.191406 8.800781 -18.175781 8.75 -18.15625 C 7.675781 -17.914062 6.613281 -17.644531 5.5625 -17.34375 C 4.519531 -17.050781 3.472656 -16.71875 2.421875 -16.34375 C 1.546875 -16.050781 0.679688 -15.726562 -0.171875 -15.375 C -1.035156 -15.03125 -1.882812 -14.648438 -2.71875 -14.234375 C -2.769531 -14.203125 -2.8125 -14.175781 -2.84375 -14.15625 C -3 -14.082031 -3.144531 -14 -3.28125 -13.90625 C -3.414062 -13.8125 -3.53125 -13.695312 -3.625 -13.5625 C -3.550781 -13.414062 -3.445312 -13.300781 -3.3125 -13.21875 C -3.1875 -13.144531 -3.046875 -13.09375 -2.890625 -13.0625 C -2.796875 -13.03125 -2.710938 -12.988281 -2.640625 -12.9375 C -2.179688 -12.757812 -1.695312 -12.640625 -1.1875 -12.578125 C -1.175781 -12.585938 -1.160156 -12.578125 -1.140625 -12.546875 C -1.117188 -12.523438 -1.097656 -12.507812 -1.078125 -12.5 C -1.066406 -12.445312 -1.070312 -12.40625 -1.09375 -12.375 C -1.125 -12.351562 -1.148438 -12.332031 -1.171875 -12.3125 C -1.359375 -12.195312 -1.554688 -12.160156 -1.765625 -12.203125 C -2.148438 -12.253906 -2.53125 -12.335938 -2.90625 -12.453125 C -3.28125 -12.566406 -3.640625 -12.710938 -3.984375 -12.890625 C -4.554688 -13.191406 -4.585938 -13.546875 -4.078125 -13.953125 C -3.816406 -14.160156 -3.53125 -14.351562 -3.21875 -14.53125 C -2.757812 -14.78125 -2.296875 -15.007812 -1.828125 -15.21875 C -1.367188 -15.425781 -0.898438 -15.628906 -0.421875 -15.828125 C -0.367188 -15.835938 -0.316406 -15.859375 -0.265625 -15.890625 C 0.953125 -16.390625 2.191406 -16.835938 3.453125 -17.234375 C 4.722656 -17.628906 6 -18 7.28125 -18.34375 C 7.988281 -18.53125 8.703125 -18.695312 9.421875 -18.84375 C 9.585938 -18.882812 9.742188 -18.941406 9.890625 -19.015625 C 10.035156 -19.097656 10.15625 -19.226562 10.25 -19.40625 C 10.28125 -19.445312 10.320312 -19.488281 10.375 -19.53125 C 10.425781 -19.570312 10.476562 -19.609375 10.53125 -19.640625 C 10.5625 -19.660156 10.582031 -19.675781 10.59375 -19.6875 C 10.664062 -19.726562 10.734375 -19.734375 10.796875 -19.703125 C 10.859375 -19.679688 10.898438 -19.625 10.921875 -19.53125 C 10.929688 -19.4375 10.953125 -19.367188 10.984375 -19.328125 C 11.023438 -19.285156 11.09375 -19.273438 11.1875 -19.296875 C 11.238281 -19.296875 11.285156 -19.304688 11.328125 -19.328125 C 11.492188 -19.347656 11.675781 -19.367188 11.875 -19.390625 C 11.976562 -19.390625 12.046875 -19.332031 12.078125 -19.21875 C 12.078125 -19.175781 12.066406 -19.132812 12.046875 -19.09375 C 12.023438 -19.0625 12 -19.039062 11.96875 -19.03125 C 11.78125 -18.957031 11.59375 -18.882812 11.40625 -18.8125 C 11.195312 -18.75 11.03125 -18.695312 10.90625 -18.65625 C 10.75 -18.625 10.632812 -18.585938 10.5625 -18.546875 C 10.5 -18.515625 10.441406 -18.46875 10.390625 -18.40625 C 10.335938 -18.34375 10.273438 -18.234375 10.203125 -18.078125 C 10.140625 -17.960938 10.0625 -17.816406 9.96875 -17.640625 C 9.226562 -16.296875 8.457031 -14.957031 7.65625 -13.625 C 7.40625 -13.175781 7.148438 -12.726562 6.890625 -12.28125 C 5.742188 -10.289062 4.601562 -8.296875 3.46875 -6.296875 C 2 -3.722656 0.40625 -1.21875 -1.3125 1.21875 C -1.695312 1.757812 -2.085938 2.304688 -2.484375 2.859375 C -2.722656 3.191406 -2.960938 3.519531 -3.203125 3.84375 C -3.210938 3.875 -3.222656 3.898438 -3.234375 3.921875 C -3.285156 3.972656 -3.328125 4.023438 -3.359375 4.078125 C -3.390625 4.128906 -3.394531 4.191406 -3.375 4.265625 C -3.195312 4.179688 -3.023438 4.109375 -2.859375 4.046875 C -2.460938 3.847656 -2.066406 3.648438 -1.671875 3.453125 C -0.398438 2.847656 0.898438 2.296875 2.234375 1.796875 C 3.898438 1.179688 5.582031 0.59375 7.28125 0.03125 C 8.976562 -0.519531 10.6875 -1.054688 12.40625 -1.578125 C 15.007812 -2.347656 17.648438 -3.019531 20.328125 -3.59375 C 24.296875 -4.414062 28.304688 -4.984375 32.359375 -5.296875 C 32.378906 -5.296875 32.410156 -5.300781 32.453125 -5.3125 C 32.691406 -5.332031 32.929688 -5.347656 33.171875 -5.359375 C 33.296875 -5.347656 33.414062 -5.3125 33.53125 -5.25 Z M 33.53125 -5.25 "/></g></g><g transform="translate(70.211747, 28.065505)"><g><path d="M 3.21875 -4.140625 C 3.332031 -4.117188 3.378906 -4 3.359375 -3.78125 C 3.285156 -3.59375 3.207031 -3.414062 3.125 -3.25 C 3.039062 -3.09375 2.9375 -2.945312 2.8125 -2.8125 C 2.800781 -2.800781 2.800781 -2.789062 2.8125 -2.78125 C 2.738281 -2.675781 2.648438 -2.582031 2.546875 -2.5 C 1.742188 -1.914062 1.226562 -1.972656 1 -2.671875 C 0.726562 -2.242188 0.539062 -1.972656 0.4375 -1.859375 C 0.195312 -1.585938 -0.0976562 -1.410156 -0.453125 -1.328125 C -0.722656 -1.265625 -0.921875 -1.289062 -1.046875 -1.40625 C -1.179688 -1.519531 -1.226562 -1.710938 -1.1875 -1.984375 C -1.144531 -2.410156 -1.015625 -2.820312 -0.796875 -3.21875 C -0.546875 -3.664062 -0.234375 -4.054688 0.140625 -4.390625 C 0.335938 -4.566406 0.570312 -4.6875 0.84375 -4.75 C 1.101562 -4.800781 1.300781 -4.703125 1.4375 -4.453125 C 1.488281 -4.378906 1.492188 -4.300781 1.453125 -4.21875 C 1.390625 -4.101562 1.300781 -4.050781 1.1875 -4.0625 C 1.175781 -4.0625 1.160156 -4.0625 1.140625 -4.0625 C 1.117188 -4.0625 1.109375 -4.066406 1.109375 -4.078125 C 0.953125 -4.191406 0.816406 -4.21875 0.703125 -4.15625 C 0.597656 -4.101562 0.5 -4.023438 0.40625 -3.921875 C -0.0703125 -3.378906 -0.359375 -2.765625 -0.453125 -2.078125 C -0.460938 -2.054688 -0.460938 -2.023438 -0.453125 -1.984375 C -0.441406 -1.953125 -0.421875 -1.929688 -0.390625 -1.921875 C -0.328125 -1.921875 -0.257812 -1.945312 -0.1875 -2 C -0.113281 -2.0625 -0.046875 -2.132812 0.015625 -2.21875 C 0.0859375 -2.3125 0.144531 -2.390625 0.1875 -2.453125 C 0.1875 -2.460938 0.1875 -2.46875 0.1875 -2.46875 C 0.382812 -2.789062 0.582031 -3.113281 0.78125 -3.4375 C 0.875 -3.582031 1 -3.691406 1.15625 -3.765625 C 1.40625 -3.835938 1.546875 -3.753906 1.578125 -3.515625 C 1.578125 -3.429688 1.570312 -3.347656 1.5625 -3.265625 C 1.582031 -2.867188 1.644531 -2.648438 1.75 -2.609375 C 1.863281 -2.578125 2.003906 -2.617188 2.171875 -2.734375 C 2.335938 -2.859375 2.488281 -3.035156 2.625 -3.265625 C 2.757812 -3.503906 2.863281 -3.710938 2.9375 -3.890625 C 3.019531 -4.078125 3.113281 -4.160156 3.21875 -4.140625 Z M 3.21875 -4.140625 "/></g></g><g transform="translate(73.968475, 26.919555)"><g><path d="M 4.125 -4.5 C 4.207031 -4.5 4.253906 -4.484375 4.265625 -4.453125 C 4.285156 -4.429688 4.296875 -4.421875 4.296875 -4.421875 C 4.242188 -4.222656 4.179688 -4.046875 4.109375 -3.890625 C 3.929688 -3.503906 3.695312 -3.164062 3.40625 -2.875 C 3.25 -2.726562 3.0625 -2.617188 2.84375 -2.546875 C 2.351562 -2.390625 2.050781 -2.5625 1.9375 -3.0625 C 1.925781 -3.175781 1.921875 -3.289062 1.921875 -3.40625 C 1.921875 -3.445312 1.914062 -3.492188 1.90625 -3.546875 C 1.90625 -3.742188 1.890625 -3.851562 1.859375 -3.875 C 1.828125 -3.894531 1.78125 -3.828125 1.71875 -3.671875 C 1.71875 -3.640625 1.703125 -3.601562 1.671875 -3.5625 C 1.578125 -3.34375 1.476562 -3.117188 1.375 -2.890625 C 1.1875 -2.472656 0.941406 -2.09375 0.640625 -1.75 C 0.453125 -1.539062 0.234375 -1.394531 -0.015625 -1.3125 C -0.410156 -1.1875 -0.695312 -1.3125 -0.875 -1.6875 C -0.925781 -1.832031 -0.960938 -1.984375 -0.984375 -2.140625 C -1.015625 -2.847656 -0.828125 -3.441406 -0.421875 -3.921875 C -0.0234375 -4.410156 0.503906 -4.703125 1.171875 -4.796875 C 1.359375 -4.796875 1.476562 -4.890625 1.53125 -5.078125 C 1.539062 -5.140625 1.550781 -5.207031 1.5625 -5.28125 C 1.644531 -5.632812 1.722656 -5.988281 1.796875 -6.34375 C 1.941406 -7 2.082031 -7.671875 2.21875 -8.359375 C 2.332031 -8.898438 2.445312 -9.4375 2.5625 -9.96875 C 2.601562 -10.132812 2.644531 -10.296875 2.6875 -10.453125 C 2.707031 -10.523438 2.75 -10.578125 2.8125 -10.609375 C 2.875 -10.648438 2.929688 -10.679688 2.984375 -10.703125 C 3.003906 -10.703125 3.023438 -10.707031 3.046875 -10.71875 C 3.117188 -10.738281 3.1875 -10.734375 3.25 -10.703125 C 3.3125 -10.679688 3.335938 -10.640625 3.328125 -10.578125 C 3.328125 -10.398438 3.3125 -10.226562 3.28125 -10.0625 C 3.144531 -9.257812 3.03125 -8.453125 2.9375 -7.640625 C 2.851562 -6.835938 2.773438 -6.035156 2.703125 -5.234375 C 2.679688 -4.953125 2.65625 -4.671875 2.625 -4.390625 C 2.582031 -4.066406 2.566406 -3.738281 2.578125 -3.40625 C 2.566406 -3.320312 2.570312 -3.25 2.59375 -3.1875 C 2.613281 -3.125 2.671875 -3.078125 2.765625 -3.046875 C 2.804688 -3.023438 2.847656 -3.03125 2.890625 -3.0625 C 2.929688 -3.101562 2.972656 -3.140625 3.015625 -3.171875 C 3.015625 -3.179688 3.023438 -3.195312 3.046875 -3.21875 C 3.347656 -3.539062 3.601562 -3.890625 3.8125 -4.265625 C 3.84375 -4.335938 3.878906 -4.394531 3.921875 -4.4375 C 3.972656 -4.488281 4.039062 -4.507812 4.125 -4.5 Z M 1.21875 -4.015625 C 1.226562 -4.109375 1.210938 -4.179688 1.171875 -4.234375 C 1.140625 -4.285156 1.085938 -4.316406 1.015625 -4.328125 C 0.847656 -4.367188 0.695312 -4.332031 0.5625 -4.21875 C 0.207031 -3.988281 -0.046875 -3.671875 -0.203125 -3.265625 C -0.367188 -2.859375 -0.40625 -2.453125 -0.3125 -2.046875 C -0.300781 -2.023438 -0.289062 -2.007812 -0.28125 -2 C -0.269531 -1.976562 -0.257812 -1.945312 -0.25 -1.90625 C -0.164062 -1.738281 -0.046875 -1.738281 0.109375 -1.90625 C 0.273438 -2.070312 0.4375 -2.3125 0.59375 -2.625 C 0.75 -2.945312 0.890625 -3.25 1.015625 -3.53125 C 1.140625 -3.820312 1.207031 -3.984375 1.21875 -4.015625 Z M 1.21875 -4.015625 "/></g></g><g transform="translate(78.705465, 25.474586)"><g><path d="M 4.125 -4.5 C 4.207031 -4.5 4.253906 -4.484375 4.265625 -4.453125 C 4.285156 -4.429688 4.296875 -4.421875 4.296875 -4.421875 C 4.242188 -4.222656 4.179688 -4.046875 4.109375 -3.890625 C 3.929688 -3.503906 3.695312 -3.164062 3.40625 -2.875 C 3.25 -2.726562 3.0625 -2.617188 2.84375 -2.546875 C 2.351562 -2.390625 2.050781 -2.5625 1.9375 -3.0625 C 1.925781 -3.175781 1.921875 -3.289062 1.921875 -3.40625 C 1.921875 -3.445312 1.914062 -3.492188 1.90625 -3.546875 C 1.90625 -3.742188 1.890625 -3.851562 1.859375 -3.875 C 1.828125 -3.894531 1.78125 -3.828125 1.71875 -3.671875 C 1.71875 -3.640625 1.703125 -3.601562 1.671875 -3.5625 C 1.578125 -3.34375 1.476562 -3.117188 1.375 -2.890625 C 1.1875 -2.472656 0.941406 -2.09375 0.640625 -1.75 C 0.453125 -1.539062 0.234375 -1.394531 -0.015625 -1.3125 C -0.410156 -1.1875 -0.695312 -1.3125 -0.875 -1.6875 C -0.925781 -1.832031 -0.960938 -1.984375 -0.984375 -2.140625 C -1.015625 -2.847656 -0.828125 -3.441406 -0.421875 -3.921875 C -0.0234375 -4.410156 0.503906 -4.703125 1.171875 -4.796875 C 1.359375 -4.796875 1.476562 -4.890625 1.53125 -5.078125 C 1.539062 -5.140625 1.550781 -5.207031 1.5625 -5.28125 C 1.644531 -5.632812 1.722656 -5.988281 1.796875 -6.34375 C 1.941406 -7 2.082031 -7.671875 2.21875 -8.359375 C 2.332031 -8.898438 2.445312 -9.4375 2.5625 -9.96875 C 2.601562 -10.132812 2.644531 -10.296875 2.6875 -10.453125 C 2.707031 -10.523438 2.75 -10.578125 2.8125 -10.609375 C 2.875 -10.648438 2.929688 -10.679688 2.984375 -10.703125 C 3.003906 -10.703125 3.023438 -10.707031 3.046875 -10.71875 C 3.117188 -10.738281 3.1875 -10.734375 3.25 -10.703125 C 3.3125 -10.679688 3.335938 -10.640625 3.328125 -10.578125 C 3.328125 -10.398438 3.3125 -10.226562 3.28125 -10.0625 C 3.144531 -9.257812 3.03125 -8.453125 2.9375 -7.640625 C 2.851562 -6.835938 2.773438 -6.035156 2.703125 -5.234375 C 2.679688 -4.953125 2.65625 -4.671875 2.625 -4.390625 C 2.582031 -4.066406 2.566406 -3.738281 2.578125 -3.40625 C 2.566406 -3.320312 2.570312 -3.25 2.59375 -3.1875 C 2.613281 -3.125 2.671875 -3.078125 2.765625 -3.046875 C 2.804688 -3.023438 2.847656 -3.03125 2.890625 -3.0625 C 2.929688 -3.101562 2.972656 -3.140625 3.015625 -3.171875 C 3.015625 -3.179688 3.023438 -3.195312 3.046875 -3.21875 C 3.347656 -3.539062 3.601562 -3.890625 3.8125 -4.265625 C 3.84375 -4.335938 3.878906 -4.394531 3.921875 -4.4375 C 3.972656 -4.488281 4.039062 -4.507812 4.125 -4.5 Z M 1.21875 -4.015625 C 1.226562 -4.109375 1.210938 -4.179688 1.171875 -4.234375 C 1.140625 -4.285156 1.085938 -4.316406 1.015625 -4.328125 C 0.847656 -4.367188 0.695312 -4.332031 0.5625 -4.21875 C 0.207031 -3.988281 -0.046875 -3.671875 -0.203125 -3.265625 C -0.367188 -2.859375 -0.40625 -2.453125 -0.3125 -2.046875 C -0.300781 -2.023438 -0.289062 -2.007812 -0.28125 -2 C -0.269531 -1.976562 -0.257812 -1.945312 -0.25 -1.90625 C -0.164062 -1.738281 -0.046875 -1.738281 0.109375 -1.90625 C 0.273438 -2.070312 0.4375 -2.3125 0.59375 -2.625 C 0.75 -2.945312 0.890625 -3.25 1.015625 -3.53125 C 1.140625 -3.820312 1.207031 -3.984375 1.21875 -4.015625 Z M 1.21875 -4.015625 "/></g></g><g transform="translate(83.442455, 24.029617)"><g><path d="M 1.515625 -3.078125 C 1.378906 -2.773438 1.207031 -2.476562 1 -2.1875 C 0.789062 -1.90625 0.519531 -1.671875 0.1875 -1.484375 C -0.132812 -1.304688 -0.410156 -1.25 -0.640625 -1.3125 C -0.867188 -1.382812 -0.988281 -1.648438 -1 -2.109375 C -0.976562 -2.585938 -0.894531 -3.0625 -0.75 -3.53125 C -0.707031 -3.632812 -0.632812 -3.71875 -0.53125 -3.78125 C -0.457031 -3.8125 -0.382812 -3.816406 -0.3125 -3.796875 C -0.238281 -3.773438 -0.191406 -3.726562 -0.171875 -3.65625 C -0.191406 -3.5 -0.210938 -3.34375 -0.234375 -3.1875 C -0.265625 -3.03125 -0.289062 -2.921875 -0.3125 -2.859375 C -0.363281 -2.578125 -0.375 -2.300781 -0.34375 -2.03125 C -0.300781 -1.882812 -0.0976562 -1.9375 0.265625 -2.1875 C 0.640625 -2.445312 0.957031 -2.8125 1.21875 -3.28125 C 1.488281 -3.75 1.640625 -3.90625 1.671875 -3.75 C 1.703125 -3.601562 1.648438 -3.378906 1.515625 -3.078125 Z M -0.046875 -4.671875 C -0.0546875 -4.648438 -0.0859375 -4.617188 -0.140625 -4.578125 C -0.191406 -4.546875 -0.25 -4.515625 -0.3125 -4.484375 C -0.375 -4.453125 -0.425781 -4.445312 -0.46875 -4.46875 C -0.519531 -4.488281 -0.546875 -4.539062 -0.546875 -4.625 C -0.535156 -4.8125 -0.507812 -4.972656 -0.46875 -5.109375 C -0.4375 -5.242188 -0.398438 -5.398438 -0.359375 -5.578125 C -0.304688 -5.671875 -0.238281 -5.734375 -0.15625 -5.765625 C -0.0820312 -5.796875 -0.0078125 -5.789062 0.0625 -5.75 C 0.132812 -5.71875 0.164062 -5.65625 0.15625 -5.5625 C 0.164062 -5.25 0.0976562 -4.953125 -0.046875 -4.671875 Z M -0.046875 -4.671875 "/></g></g></g><g clip-path="url(#5c15a53c3a)"><g clip-path="url(#303b77ad9e)"><path fill="#ffffff" d="M 78.910156 27.578125 L 80.21875 27.578125 L 80.21875 28.886719 L 78.910156 28.886719 Z M 78.910156 27.578125 " fill-opacity="1" fill-rule="nonzero"/></g></g></svg>